<?xml version="1.0" encoding="UTF-8" standalone="no"?>
<!-- Created with Inkscape (http://www.inkscape.org/) -->

<svg
   xmlns:dc="http://purl.org/dc/elements/1.1/"
   xmlns:cc="http://creativecommons.org/ns#"
   xmlns:rdf="http://www.w3.org/1999/02/22-rdf-syntax-ns#"
   xmlns:svg="http://www.w3.org/2000/svg"
   xmlns="http://www.w3.org/2000/svg"
   xmlns:sodipodi="http://sodipodi.sourceforge.net/DTD/sodipodi-0.dtd"
   xmlns:inkscape="http://www.inkscape.org/namespaces/inkscape"
   id="svg2985"
   version="1.1"
   inkscape:version="0.48.4 r9939"
   width="427"
   height="400"
   sodipodi:docname="flyway-logo.svg"
   inkscape:export-filename="C:\Workspaces\flywaydb.org\assets\logo\flyway-logo.png"
   inkscape:export-xdpi="90"
   inkscape:export-ydpi="90">
  <metadata
     id="metadata2991">
    <rdf:RDF>
      <cc:Work
         rdf:about="">
        <dc:format>image/svg+xml</dc:format>
        <dc:type
           rdf:resource="http://purl.org/dc/dcmitype/StillImage" />
        <dc:title></dc:title>
      </cc:Work>
    </rdf:RDF>
  </metadata>
  <defs
     id="defs2989" />
  <sodipodi:namedview
     pagecolor="#ffffff"
     bordercolor="#666666"
     borderopacity="1"
     objecttolerance="10"
     gridtolerance="10"
     guidetolerance="10"
     inkscape:pageopacity="0"
     inkscape:pageshadow="2"
     inkscape:window-width="1920"
     inkscape:window-height="1178"
     id="namedview2987"
     showgrid="true"
     inkscape:zoom="1.88"
     inkscape:cx="220.81503"
     inkscape:cy="227.57542"
     inkscape:window-x="1912"
     inkscape:window-y="-8"
     inkscape:window-maximized="1"
     inkscape:current-layer="svg2985">
    <inkscape:grid
       type="xygrid"
       id="grid3057"
       empspacing="5"
       visible="true"
       enabled="true"
       snapvisiblegridlinesonly="true" />
  </sodipodi:namedview>
  <g
     id="g3029"
     transform="translate(-0.77636601,-10.307659)">
    <path
       style="fill:#0166ae"
       d="M 142.66667,288.33333 C 142.3,287.96667 142,286.33542 142,284.70833 c 0,-2.72707 0.22539,-2.91325 2.88321,-2.38169 4.82208,0.96442 9.94807,-1.15763 15.3321,-6.34714 4.94834,-4.76956 5.05461,-4.9936 4.45246,-9.38675 C 163.99705,261.69932 158.99513,248 157.87915,248 c -0.37901,0 -1.83683,1.95844 -3.2396,4.35209 C 148.33931,263.10263 139.36065,271 133.43841,271 128.78676,271 125,266.32965 125,260.59259 125,258.25291 126.575,248.53625 128.5,239 130.425,229.46375 132,221.28756 132,220.83069 132,220.37381 130.97513,220 129.72251,220 126.31339,220 123,217.24387 123,214.40811 c 0,-2.14052 0.26375,-2.33732 1.93426,-1.44329 2.40805,1.28875 10.11393,1.34756 13.3895,0.10219 2.04755,-0.77848 2.39194,-0.65427 2.07948,0.75 C 138.93202,220.42906 132,258.53844 132,260.01455 c 0,1.01343 0.72242,2.56501 1.60537,3.44797 3.32461,3.3246 8.68774,-0.65552 16.61116,-12.32756 4.51044,-6.64435 4.88623,-7.614 3.8404,-9.90936 -0.90973,-1.99664 -0.87919,-2.72197 0.1419,-3.36965 1.5379,-0.97548 4.03915,-1.08559 6.16133,-0.27124 1.72859,0.66333 6.75039,12.28823 8.71112,20.16529 0.71875,2.8875 1.61456,5.25 1.99068,5.25 C 173.22659,263 182,240.31861 182,234.72251 c 0,-1.46379 0.4767,-1.71114 2.25,-1.16751 2.92738,0.89744 4.75,2.39008 4.75,3.89002 0,0.66008 -2.0068,5.32332 -4.45955,10.36277 -8.49201,17.44777 -20.57352,32.87558 -29.96169,38.26039 -4.7453,2.72179 -10.38335,3.79389 -11.91209,2.26515 z m 153,0 C 295.3,287.96667 295,286.33542 295,284.70833 c 0,-2.72707 0.22539,-2.91325 2.88321,-2.38169 1.58576,0.31715 4.56958,0.11101 6.63071,-0.4581 4.70483,-1.29906 13.48926,-9.81789 13.47844,-13.07092 C 317.97908,264.80474 312.22084,248 310.86593,248 c -0.38258,0 -2.33789,2.23726 -4.34515,4.97169 -7.8359,10.67464 -18.79662,17.59055 -24.0703,15.1877 C 279.2662,266.70854 278,263.30816 278,256.20765 l 0,-5.66215 -3.75,6.38306 c -9.68044,16.47754 -23.60792,18.80906 -25.01289,4.18726 -0.98728,-10.27475 5.51652,-22.28232 14.20708,-26.22969 4.79964,-2.18006 7.70876,-2.27876 12.87367,-0.43675 3.24044,1.15567 4.22351,1.14996 6.5,-0.0377 2.30001,-1.19996 6.2048,-1.93498 6.17132,-1.16165 -0.006,0.1375 -0.67464,2.43804 -1.48597,5.1123 -2.30168,7.5867 -2.99084,19.73451 -1.25008,22.03516 2.37937,3.14467 5.91513,1.26583 14.20862,-7.55021 7.49723,-7.96959 7.84716,-8.72337 6.06078,-13.05538 -0.52823,-1.28098 -0.0745,-1.86621 1.81438,-2.34029 5.77446,-1.4493 8.05508,1.72596 12.78367,17.79842 1.25405,4.2625 2.58275,7.75 2.95266,7.75 1.44077,0 8.12327,-15.4857 9.7264,-22.53946 1.51071,-6.64712 1.90439,-7.37446 3.69559,-6.82771 2.69649,0.82309 4.50477,2.35336 4.50477,3.81219 0,0.66008 -2.0068,5.32332 -4.45955,10.36277 -8.49201,17.44777 -20.57352,32.87558 -29.96169,38.26039 -4.7453,2.72179 -10.38335,3.79389 -11.91209,2.26515 z M 265.71737,260.75 c 4.64514,-4.8547 13.31541,-17.88795 12.63365,-18.99105 C 277.46882,240.33152 271.42615,238 268.60884,238 c -3.42556,0 -8.08122,4.22408 -10.03356,9.10346 -1.72657,4.31513 -2.4358,13.69517 -1.18814,15.71394 1.34213,2.17161 5.18731,1.21731 8.33023,-2.0674 z m -183.674289,18 c 0.0237,-0.6875 1.321611,-7.48793 2.884259,-15.11206 l 2.841178,-13.86206 -3.330176,0.54041 c -3.242167,0.52613 -3.300179,0.47458 -2.195117,-1.95077 0.662535,-1.4541 2.256651,-2.7155 3.82926,-3.03002 2.484789,-0.49695 2.819922,-1.17219 4.311635,-8.68717 0.889588,-4.48158 1.617084,-8.71083 1.616657,-9.39833 -0.0011,-1.69149 -4.852729,-1.57573 -8.250777,0.19686 -3.393613,1.77027 -3.792935,0.0627 -0.838549,-3.58583 1.847875,-2.28203 2.524588,-2.38037 20.345709,-2.95641 10.13884,-0.32773 18.99858,-0.94464 19.68831,-1.37092 0.96472,-0.59623 1.01292,-0.32446 0.20889,1.17787 -2.09563,3.91572 -4.19275,4.69767 -13.71573,5.11418 l -9.35446,0.40913 -1.627783,7.63256 c -0.895279,4.19791 -1.844541,8.42006 -2.109471,9.38256 -0.418792,1.52148 0.278807,1.75 5.342294,1.75 3.2032,0 7.28352,-0.41859 9.06739,-0.93019 3.68041,-1.05553 4.04973,-0.28715 1.42185,2.95814 -1.51651,1.87281 -3.08914,2.33087 -9.39088,2.73529 l -7.569331,0.48577 -2.772711,14.12549 c -1.524992,7.76903 -3.261595,14.45611 -3.85912,14.86019 -1.804983,1.22062 -6.589885,0.86619 -6.543327,-0.48469 z M 222.01971,270.71555 C 218.44383,268.90625 217.0412,265.39234 216.9441,258 l -0.0854,-6.5 -1.98215,4.5 c -3.30494,7.5031 -6.77093,11.74057 -10.98088,13.42506 -2.1649,0.86622 -4.26457,1.57595 -4.66594,1.57719 -0.40137,10e-4 -0.58097,-3.13247 -0.39912,-6.9638 0.37205,-7.83852 -1.81871,-19.9624 -4.84231,-26.79774 -1.10692,-2.50238 -1.89371,-4.66867 -1.74841,-4.81396 0.1453,-0.1453 1.44143,-0.55966 2.8803,-0.92079 5.05425,-1.26853 8.19492,5.40628 10.29149,21.87234 0.87856,6.90009 1.38537,8.57112 2.2746,7.49968 C 210.14204,257.919 217,242.45927 217,239.88235 c 0,-2.23226 0.55889,-2.84619 3.09884,-3.40406 4.78442,-1.05083 5.2191,0.16234 3.83868,10.71347 -1.81417,13.86648 0.0415,20.49538 4.99529,17.8442 5.01713,-2.68509 9.00768,-18.25938 6.52725,-25.47448 -1.3988,-4.06883 -0.41088,-5.56148 3.68092,-5.56148 3.54062,0 4.2858,1.34595 4.14042,7.47847 -0.24183,10.20102 -8.50423,26.46321 -14.77688,29.08409 -4.0905,1.70912 -3.43966,1.69376 -6.48481,0.15299 z M 183,218.16671 c -3.025,-1.00318 -7.075,-2.6371 -9,-3.63093 -6.42498,-3.31708 -20.14263,-13.75472 -21.23871,-16.16035 C 152.16601,197.06894 151.34935,196 150.94647,196 c -2.67265,0 -0.1796,-10.93326 6.04264,-26.5 6.74628,-16.87776 11.14317,-29.95591 10.17924,-30.27722 -0.56572,-0.18857 -5.43074,-4.02834 -10.81117,-8.53282 -7.13619,-5.97439 -11.41583,-10.55749 -15.81989,-16.94167 -8.26526,-11.98139 -18.3658,-28.167032 -19.59498,-31.400039 -1.01337,-2.665358 -1.02065,-2.66029 -4.65832,3.241109 -2.00385,3.250852 -5.025,7.48564 -6.71368,9.41064 -1.68867,1.925 -5.70847,8.3375 -8.93289,14.25 -3.224412,5.9125 -6.209428,10.75 -6.633364,10.75 -1.117261,0 -1.971868,-3.82774 -2.009402,-9 l -0.03265,-4.5 -2.980999,4.74705 c -1.63955,2.61088 -2.983235,5.08588 -2.985967,5.5 -0.0027,0.41412 -1.072891,2.08767 -2.378132,3.71899 -2.18724,2.73367 -2.587135,2.86855 -5.104324,1.72164 -2.579513,-1.1753 -2.693344,-1.50656 -2.050105,-5.96604 0.37458,-2.5969 0.898046,-5.84664 1.163257,-7.22164 0.440563,-2.28412 0.244394,-2.19776 -2.271703,1 -5.310026,6.74863 -13.900106,14.33609 -18.811862,16.61618 -2.72681,1.26582 -5.097714,2.1616 -5.268676,1.99064 -0.170961,-0.17096 1.759374,-4.20243 4.289634,-8.95883 C 58.093382,114.8916 59.895429,111 59.56767,111 c -0.327759,0 -3.081382,2.02443 -6.119161,4.49874 C 47.641455,120.22865 41.069846,124 38.634995,124 c -1.115219,0 -1.318663,-0.93954 -0.892093,-4.11986 l 0.552589,-4.11986 -2.581532,1.69149 c -1.901915,1.24618 -13.638115,5.46845 -15.400601,5.54059 -0.102652,0.004 -0.327652,-1.45486 -0.5,-3.24236 -0.306426,-3.17811 -0.42396,-3.25191 -5.313358,-3.33639 -3.601228,-0.0622 -5,-0.48185 -5,-1.5 0,-0.96176 1.72112,-1.62366 5.384532,-2.07077 2.961492,-0.36144 8.361492,-1.90401 12,-3.42793 C 40.779493,103.59524 48.039931,97.761152 80.577524,66.270199 107.37583,40.333914 115.67815,34.645618 133.43834,30.052848 144.69832,27.141024 149.27745,27.308749 152.4716,30.75 c 3.69232,3.977953 16.4003,23.265292 22.25975,33.784398 6.47648,11.626798 16.27265,26.657077 17.11504,26.259624 0.35948,-0.169613 3.37458,-1.727927 6.70021,-3.462921 10.27753,-5.361832 27.04345,-6.930203 40.40869,-3.780037 6.19298,1.459677 6.5672,1.438759 9.2095,-0.514781 C 249.67962,81.916327 251.31872,81 251.80725,81 c 0.48852,0 3.31924,-2.515739 6.29049,-5.59053 2.97124,-3.074792 8.55226,-8.122128 12.40226,-11.216303 3.85,-3.094174 10.33126,-9.151838 14.40281,-13.461474 4.07154,-4.309637 12.35755,-11.9748 18.41336,-17.033698 25.34707,-21.174435 22.09491,-19.022533 28.4799,-18.844687 5.49352,0.153015 5.8905,0.352315 10.76149,5.402784 4.45258,4.616649 5.80936,7.157776 11.34272,21.243908 3.45684,8.8 7.53684,18.475 9.06667,21.5 1.52982,3.025 5.17257,11.08772 8.09499,17.917155 2.92242,6.829435 7.09694,15.087886 9.27671,18.352114 4.5051,6.746441 20.03137,20.860751 26.44276,24.038041 3.32107,1.64582 4.85566,3.29548 6.84157,7.35453 1.4081,2.87804 2.2674,5.7065 1.90958,6.28548 -0.85859,1.38922 -16.7496,1.36723 -21.41654,-0.0296 -2.80331,-0.83906 -4.55734,-0.75775 -7.80426,0.36175 C 382.32943,138.65251 380,138.13053 380,135.8651 c 0,-0.4042 -0.4284,-1.86169 -0.95201,-3.23887 l -0.95201,-2.50398 -5.29799,2.92076 c -2.91389,1.60642 -5.63549,2.92891 -6.04799,2.93887 -1.2757,0.0308 -0.82863,-2.93223 0.82266,-5.45243 0.86496,-1.3201 1.42746,-3.56822 1.25,-4.99583 l -0.32266,-2.59566 -5.35041,4.03102 c -2.94273,2.21706 -5.75523,4.03102 -6.25,4.03102 -1.41639,0 -1.06271,-2.41725 1.04126,-7.11662 1.06746,-2.38426 1.76616,-4.5097 1.55266,-4.7232 -0.2135,-0.21351 -1.59757,0.56311 -3.07571,1.72582 -3.16373,2.48859 -7.94376,2.79172 -8.80088,0.5581 -0.32838,-0.85574 0.0735,-3.1607 0.89302,-5.12212 2.17281,-5.20028 1.84029,-6.02407 -1.25994,-3.12142 -1.5125,1.41612 -3.72423,2.86848 -4.91496,3.22749 C 339.8999,117.16225 335,116.20301 335,114.99208 c 0,-0.43511 1.58698,-3.14934 3.52662,-6.03164 1.93964,-2.88229 3.33007,-5.43709 3.08983,-5.67732 -0.24023,-0.24024 -3.26725,1.62279 -6.7267,4.14005 -10.85336,7.8974 -15.70707,5.30032 -6.45231,-3.45245 C 331.49685,101.07726 334,98.335072 334,97.876967 c 0,-0.458105 -2.1131,0.50717 -4.69578,2.145053 -5.3137,3.36985 -6.54785,3.59427 -8.28108,1.50586 -0.97792,-1.17832 -0.896,-1.797875 0.41045,-3.104331 C 322.96953,96.887612 327,89.725522 327,88.532118 c 0,-0.301156 -2.64209,1.255916 -5.87131,3.460162 C 317.89947,94.196526 315.02695,96 314.74532,96 c -1.55495,0 -1.28767,-4.104193 0.36467,-5.599538 2.24982,-2.036056 8.14136,-14.146424 7.62933,-15.682493 -0.19654,-0.589639 -1.44449,0.695102 -2.77322,2.85498 -6.18008,10.045873 -23.40028,31.650741 -30.52367,38.295721 -9.39654,8.76546 -27.31427,22.32857 -28.51616,21.58576 -0.97176,-0.60058 -4.92627,6.66119 -4.92627,9.04622 0,0.86919 -0.87682,2.79961 -1.94848,4.28984 -2.7542,3.82992 -13.19292,33.54851 -16.52459,47.04481 -3.35991,13.61068 -4.61462,15.08742 -16.02693,18.86296 -10.73575,3.55171 -30.00218,4.28656 -38.5,1.46845 z m 36.44615,-3.90479 c 10.97615,-3.41581 12.00314,-4.25107 13.55463,-11.02421 0.72287,-3.15574 2.83704,-10.85659 4.69815,-17.11299 1.86111,-6.2564 3.21041,-11.54871 2.99845,-11.76068 -0.21197,-0.21197 -2.32058,0.29738 -4.6858,1.13188 -11.43936,4.03603 -36.32387,3.77826 -49.04768,-0.50808 -8.01763,-2.70094 -16.8,-7.1376 -20.81282,-10.51417 -2.28862,-1.92574 -3.26948,-2.28327 -3.59616,-1.31083 -0.24706,0.73544 -2.51231,7.10698 -5.0339,14.15897 -5.32144,14.88222 -5.31408,17.89668 0.0552,22.61099 5.22348,4.58627 15.04134,11.00277 21.03122,13.74503 10.32963,4.72906 26.7642,4.96412 40.83869,0.58409 z m 14.57909,-41.27756 c 8.37243,-2.483 9.31607,-3.30016 11.8616,-10.27187 3.07005,-8.40826 2.95541,-8.78121 -2.13684,-6.95135 -6.11863,2.19869 -19.97141,1.91579 -35.2298,-0.71946 -15.24431,-2.63281 -20.5535,-4.46416 -30.22033,-10.42415 l -7.14515,-4.40528 -1.04282,2.64387 c -0.57355,1.45414 -2.15502,5.65965 -3.51437,9.34559 l -2.47155,6.70172 3.56914,3.13374 c 6.63197,5.82295 22.20644,11.70669 35.30488,13.33753 7.05577,0.87848 24.54714,-0.46914 31.02524,-2.39034 z M 245.5,151.90939 c 4.94839,-1.85488 5.04894,-1.98021 9.74129,-12.14181 C 259.66641,130.18469 264,118.82457 264,116.8074 c 0,-0.48373 -1.6875,0.2762 -3.75,1.68873 -9.79097,6.70545 -30.13442,8.92411 -46.75,5.09855 -10.0296,-2.3092 -21.7237,-7.94649 -25.56871,-12.32572 l -2.93864,-3.34693 -0.95386,2.28899 c -0.52462,1.25894 -3.22071,7.91398 -5.9913,14.78898 l -5.03744,12.5 2.74498,2.24084 c 8.12659,6.63408 18.28733,10.17903 38.24497,13.34317 13.25542,2.10155 23.80988,1.70798 31.5,-1.17462 z M 171.89411,132.73245 C 174.50372,127.004 185,100.47473 185,99.60741 c 0,-0.378617 0.94274,-1.963524 2.09499,-3.522014 l 2.09498,-2.83362 -4.26589,-6.875888 C 182.57784,82.59415 180.09336,78.825 179.403,78 c -0.69036,-0.825 -4.27584,-6.9 -7.96775,-13.5 -8.18246,-14.62775 -15.13892,-25.053056 -20.42477,-30.609639 -3.97493,-4.178522 -3.97592,-4.178884 -9.74291,-3.554176 -9.64695,1.045003 -21.16445,5.196101 -29.55855,10.653387 -5.0737,3.298589 -16.914225,13.799179 -33.949232,30.107368 -29.356796,28.104255 -35.716511,33.27365 -47.448761,38.56796 -8.043831,3.62987 -8.178647,3.74978 -7.60636,6.76524 0.320438,1.68842 0.697552,3.21194 0.838032,3.38558 0.812113,1.00387 8.997167,-2.35083 11.852446,-4.8578 C 40.109516,110.81865 41,111.15207 41,117.05654 l 0,5.05653 3.166023,-1.80653 c 1.741313,-0.9936 6.352506,-4.84404 10.247095,-8.55654 3.89459,-3.7125 7.597489,-6.75 8.228666,-6.75 1.740627,0 0.184114,5.51829 -3.608438,12.79296 -1.804413,3.46113 -3.059814,6.51391 -2.789779,6.78394 0.270035,0.27004 2.78414,-1.32167 5.586901,-3.53713 6.03871,-4.77332 12.888338,-13.53247 14.689165,-18.78416 0.708297,-2.06559 2.068722,-3.913158 3.023165,-4.105718 1.570416,-0.316831 1.669203,0.348481 1.039382,6.999998 -0.382783,4.04256 -0.952881,9.03761 -1.266883,11.10011 -0.425642,2.7958 -0.220324,3.74926 0.806895,3.74711 1.589103,-0.003 4.852518,-5.45854 11.514019,-19.24711 C 94.22693,95.3875 96.943622,91 97.673305,91 99.346353,91 99.372361,90.681606 97,99.242559 c -1.1,3.969481 -1.985688,8.576291 -1.968197,10.237341 0.03075,2.92015 0.0828,2.95391 1.572678,1.0201 0.847481,-1.1 3.114504,-4.66507 5.037829,-7.92238 1.92332,-3.257316 5.05348,-7.740843 6.95591,-9.963397 4.79507,-5.601961 9.51378,-15.319791 8.80675,-18.136829 -0.31186,-1.242563 -0.12894,-2.529958 0.4065,-2.860878 0.53544,-0.33092 2.62164,2.882488 4.63599,7.140906 7.12232,15.056857 23.05402,38.611468 31.3901,46.409468 6.73113,6.29664 13.88383,11.83311 15.28749,11.83311 0.45373,0 1.69981,-1.9204 2.76906,-4.26755 z m 238.34743,2.43715 c 1.65538,-0.65571 1.65538,-0.86221 0,-4.17435 -1.03433,-2.06951 -3.42906,-4.40967 -5.89712,-5.76272 -5.19519,-2.84815 -19.9269,-15.65495 -24.16885,-21.01086 C 377.05076,100.27629 369.01455,84.915725 367.50347,80 c -0.42267,-1.375 -2.89902,-6.775 -5.503,-12 -2.60398,-5.225 -7.516,-16.549881 -10.91562,-25.166402 -6.17703,-15.65607 -10.02508,-22.437877 -14.33301,-25.26054 -4.31888,-2.829845 -9.26455,-0.193723 -26.50102,14.125481 -8.70496,7.23165 -19.44701,16.895382 -23.87122,21.474958 -4.42421,4.579577 -11.49453,11.178641 -15.71181,14.664589 C 266.4505,71.324033 263,74.558352 263,75.025462 c 0,0.46711 -2.85642,3.272568 -6.34761,6.234351 l -6.3476,5.385061 6.8629,3.294668 c 7.13142,3.423581 10.24598,6.614421 11.34362,11.621448 0.35435,1.61646 1.12711,3.93617 1.71722,5.15492 0.78337,1.61787 0.75489,2.59915 -0.10553,3.63589 -1.43656,1.73095 -8.28871,21.81583 -7.65789,22.44665 1.05798,1.05797 24.297,-17.55616 31.14228,-24.94453 4.71513,-5.08923 21.58612,-27.546442 25.9495,-34.541761 3.78253,-6.064102 7.07005,-8.447922 8.06712,-5.849579 0.27592,0.719033 -1.07658,5.509125 -3.00556,10.644649 -1.92898,5.135523 -3.36699,9.477564 -3.19557,9.64898 0.77227,0.772271 10.69344,-8.080466 12.09661,-10.793902 C 335.07952,73.945554 337,73.759841 337,76.625739 c 0,0.829238 -1.07539,2.94018 -2.38975,4.690983 -3.16134,4.211077 -8.89199,15.734873 -8.17922,16.447644 0.30909,0.309091 3.26416,-1.536445 6.56682,-4.101191 C 336.30051,91.098429 339.22708,89 339.50134,89 c 0.27426,0 0.49698,1.0125 0.49492,2.25 -0.004,2.615921 -3.08438,8.063048 -6.78531,12 -5.25112,5.58601 2.13908,1.41449 9.02069,-5.091884 2.05241,-1.940489 4.00886,-3.250952 4.34767,-2.91214 0.77719,0.777194 -3.07646,11.190814 -5.73741,15.504024 -1.83128,2.96839 -1.8556,3.25 -0.2806,3.25 0.94843,0 3.98727,-2.26286 6.75299,-5.02857 2.76571,-2.76572 5.3721,-4.67822 5.79197,-4.25 0.71175,0.7259 -0.99484,9.58857 -2.60504,13.52857 -1.50805,3.69002 3.28163,1.68956 7.9793,-3.33263 2.79271,-2.98563 5.12296,-4.71389 5.64797,-4.18888 0.52501,0.52501 0.0575,3.32445 -1.13319,6.78517 -1.11482,3.24028 -1.89795,6.2784 -1.74029,6.75138 C 361.59304,125.27912 369,118.09207 369,116.75 c 0,-0.50417 0.52481,-0.74173 1.16625,-0.52792 0.77662,0.25888 1.08701,2.83201 0.92906,7.70195 l -0.23719,7.31319 3.07094,-2.18671 c 2.80004,-1.9938 3.52202,-3.19368 3.18936,-5.30051 -0.20175,-1.27774 1.92108,-0.82382 2.33832,0.5 0.21668,0.6875 0.68523,3.42153 1.04122,6.07563 l 0.64727,4.82563 4.17738,-0.74843 c 4.73251,-0.84789 5.4416,-0.82129 11.67739,0.43805 5.51688,1.11415 10.92002,1.24828 13.24154,0.32872 z M 246.56657,120.98297 C 258.48758,117.93409 267,111.59881 267,105.77559 267,92.221118 231.48127,80.557321 208.4601,86.552001 c -6.60065,1.7188 -12.85728,5.0554 -17.27895,9.214698 -4.20055,3.951303 -5.09024,6.063481 -4.06292,9.645561 1.00875,3.51731 3.31077,5.57825 10.31052,9.23075 15.15544,7.90817 33.66731,10.29665 49.13782,6.33996 z"
       id="path3033"
       inkscape:connector-curvature="0" />
    <path
       style="fill:#060606"
       d="m 183,218.16671 c -3.025,-1.00318 -7.075,-2.6371 -9,-3.63093 -6.42498,-3.31708 -20.14263,-13.75472 -21.23871,-16.16035 C 152.16601,197.06894 151.34935,196 150.94647,196 c -2.67265,0 -0.1796,-10.93326 6.04264,-26.5 6.74628,-16.87776 11.14317,-29.95591 10.17924,-30.27722 -0.56572,-0.18857 -5.43074,-4.02834 -10.81117,-8.53282 -7.13619,-5.97439 -11.41583,-10.55749 -15.81989,-16.94167 -8.26526,-11.98139 -18.3658,-28.167032 -19.59498,-31.400039 -1.01337,-2.665358 -1.02065,-2.66029 -4.65832,3.241109 -2.00385,3.250852 -5.025,7.48564 -6.71368,9.41064 -1.68867,1.925 -5.70847,8.3375 -8.93289,14.25 -3.224412,5.9125 -6.209428,10.75 -6.633364,10.75 -1.117261,0 -1.971868,-3.82774 -2.009402,-9 l -0.03265,-4.5 -2.980999,4.74705 c -1.63955,2.61088 -2.983235,5.08588 -2.985967,5.5 -0.0027,0.41412 -1.072891,2.08767 -2.378132,3.71899 -2.18724,2.73367 -2.587135,2.86855 -5.104324,1.72164 -2.579513,-1.1753 -2.693344,-1.50656 -2.050105,-5.96604 0.37458,-2.5969 0.898046,-5.84664 1.163257,-7.22164 0.440563,-2.28412 0.244394,-2.19776 -2.271703,1 -5.310026,6.74863 -13.900106,14.33609 -18.811862,16.61618 -2.72681,1.26582 -5.097714,2.1616 -5.268676,1.99064 -0.170961,-0.17096 1.759374,-4.20243 4.289634,-8.95883 C 58.093382,114.8916 59.895429,111 59.56767,111 c -0.327759,0 -3.081382,2.02443 -6.119161,4.49874 C 47.641455,120.22865 41.069846,124 38.634995,124 c -1.115219,0 -1.318663,-0.93954 -0.892093,-4.11986 l 0.552589,-4.11986 -2.581532,1.69149 c -1.901915,1.24618 -13.638115,5.46845 -15.400601,5.54059 -0.102652,0.004 -0.327652,-1.45486 -0.5,-3.24236 -0.306426,-3.17811 -0.42396,-3.25191 -5.313358,-3.33639 -3.601228,-0.0622 -5,-0.48185 -5,-1.5 0,-0.96176 1.72112,-1.62366 5.384532,-2.07077 2.961492,-0.36144 8.361492,-1.90401 12,-3.42793 C 40.779493,103.59524 48.039931,97.761152 80.577524,66.270199 107.37583,40.333914 115.67815,34.645618 133.43834,30.052848 144.69832,27.141024 149.27745,27.308749 152.4716,30.75 c 3.69232,3.977953 16.4003,23.265292 22.25975,33.784398 6.47648,11.626798 16.27265,26.657077 17.11504,26.259624 0.35948,-0.169613 3.37458,-1.727927 6.70021,-3.462921 10.27753,-5.361832 27.04345,-6.930203 40.40869,-3.780037 6.19298,1.459677 6.5672,1.438759 9.2095,-0.514781 C 249.67962,81.916327 251.31872,81 251.80725,81 c 0.48852,0 3.31924,-2.515739 6.29049,-5.59053 2.97124,-3.074792 8.55226,-8.122128 12.40226,-11.216303 3.85,-3.094174 10.33126,-9.151838 14.40281,-13.461474 4.07154,-4.309637 12.35755,-11.9748 18.41336,-17.033698 25.34707,-21.174435 22.09491,-19.022533 28.4799,-18.844687 5.49352,0.153015 5.8905,0.352315 10.76149,5.402784 4.45258,4.616649 5.80936,7.157776 11.34272,21.243908 3.45684,8.8 7.53684,18.475 9.06667,21.5 1.52982,3.025 5.17257,11.08772 8.09499,17.917155 2.92242,6.829435 7.09694,15.087886 9.27671,18.352114 4.5051,6.746441 20.03137,20.860751 26.44276,24.038041 3.32107,1.64582 4.85566,3.29548 6.84157,7.35453 1.4081,2.87804 2.2674,5.7065 1.90958,6.28548 -0.85859,1.38922 -16.7496,1.36723 -21.41654,-0.0296 -2.80331,-0.83906 -4.55734,-0.75775 -7.80426,0.36175 C 382.32943,138.65251 380,138.13053 380,135.8651 c 0,-0.4042 -0.4284,-1.86169 -0.95201,-3.23887 l -0.95201,-2.50398 -5.29799,2.92076 c -2.91389,1.60642 -5.63549,2.92891 -6.04799,2.93887 -1.2757,0.0308 -0.82863,-2.93223 0.82266,-5.45243 0.86496,-1.3201 1.42746,-3.56822 1.25,-4.99583 l -0.32266,-2.59566 -5.35041,4.03102 c -2.94273,2.21706 -5.75523,4.03102 -6.25,4.03102 -1.41639,0 -1.06271,-2.41725 1.04126,-7.11662 1.06746,-2.38426 1.76616,-4.5097 1.55266,-4.7232 -0.2135,-0.21351 -1.59757,0.56311 -3.07571,1.72582 -3.16373,2.48859 -7.94376,2.79172 -8.80088,0.5581 -0.32838,-0.85574 0.0735,-3.1607 0.89302,-5.12212 2.17281,-5.20028 1.84029,-6.02407 -1.25994,-3.12142 -1.5125,1.41612 -3.72423,2.86848 -4.91496,3.22749 C 339.8999,117.16225 335,116.20301 335,114.99208 c 0,-0.43511 1.58698,-3.14934 3.52662,-6.03164 1.93964,-2.88229 3.33007,-5.43709 3.08983,-5.67732 -0.24023,-0.24024 -3.26725,1.62279 -6.7267,4.14005 -10.85336,7.8974 -15.70707,5.30032 -6.45231,-3.45245 C 331.49685,101.07726 334,98.335072 334,97.876967 c 0,-0.458105 -2.1131,0.50717 -4.69578,2.145053 -5.3137,3.36985 -6.54785,3.59427 -8.28108,1.50586 -0.97792,-1.17832 -0.896,-1.797875 0.41045,-3.104331 C 322.96953,96.887612 327,89.725522 327,88.532118 c 0,-0.301156 -2.64209,1.255916 -5.87131,3.460162 C 317.89947,94.196526 315.02695,96 314.74532,96 c -1.55495,0 -1.28767,-4.104193 0.36467,-5.599538 2.24982,-2.036056 8.14136,-14.146424 7.62933,-15.682493 -0.19654,-0.589639 -1.44449,0.695102 -2.77322,2.85498 -6.18008,10.045873 -23.40028,31.650741 -30.52367,38.295721 -9.39654,8.76546 -27.31427,22.32857 -28.51616,21.58576 -0.97176,-0.60058 -4.92627,6.66119 -4.92627,9.04622 0,0.86919 -0.87682,2.79961 -1.94848,4.28984 -2.7542,3.82992 -13.19292,33.54851 -16.52459,47.04481 -3.35991,13.61068 -4.61462,15.08742 -16.02693,18.86296 -10.73575,3.55171 -30.00218,4.28656 -38.5,1.46845 z m 36.44615,-3.90479 c 10.97615,-3.41581 12.00314,-4.25107 13.55463,-11.02421 0.72287,-3.15574 2.83704,-10.85659 4.69815,-17.11299 1.86111,-6.2564 3.21041,-11.54871 2.99845,-11.76068 -0.21197,-0.21197 -2.32058,0.29738 -4.6858,1.13188 -11.43936,4.03603 -36.32387,3.77826 -49.04768,-0.50808 -8.01763,-2.70094 -16.8,-7.1376 -20.81282,-10.51417 -2.28862,-1.92574 -3.26948,-2.28327 -3.59616,-1.31083 -0.24706,0.73544 -2.51231,7.10698 -5.0339,14.15897 -5.32144,14.88222 -5.31408,17.89668 0.0552,22.61099 5.22348,4.58627 15.04134,11.00277 21.03122,13.74503 10.32963,4.72906 26.7642,4.96412 40.83869,0.58409 z m 14.57909,-41.27756 c 8.37243,-2.483 9.31607,-3.30016 11.8616,-10.27187 3.07005,-8.40826 2.95541,-8.78121 -2.13684,-6.95135 -6.11863,2.19869 -19.97141,1.91579 -35.2298,-0.71946 -15.24431,-2.63281 -20.5535,-4.46416 -30.22033,-10.42415 l -7.14515,-4.40528 -1.04282,2.64387 c -0.57355,1.45414 -2.15502,5.65965 -3.51437,9.34559 l -2.47155,6.70172 3.56914,3.13374 c 6.63197,5.82295 22.20644,11.70669 35.30488,13.33753 7.05577,0.87848 24.54714,-0.46914 31.02524,-2.39034 z M 245.5,151.90939 c 4.94839,-1.85488 5.04894,-1.98021 9.74129,-12.14181 C 259.66641,130.18469 264,118.82457 264,116.8074 c 0,-0.48373 -1.6875,0.2762 -3.75,1.68873 -9.79097,6.70545 -30.13442,8.92411 -46.75,5.09855 -10.0296,-2.3092 -21.7237,-7.94649 -25.56871,-12.32572 l -2.93864,-3.34693 -0.95386,2.28899 c -0.52462,1.25894 -3.22071,7.91398 -5.9913,14.78898 l -5.03744,12.5 2.74498,2.24084 c 8.12659,6.63408 18.28733,10.17903 38.24497,13.34317 13.25542,2.10155 23.80988,1.70798 31.5,-1.17462 z M 171.89411,132.73245 C 174.50372,127.004 185,100.47473 185,99.60741 c 0,-0.378617 0.94274,-1.963524 2.09499,-3.522014 l 2.09498,-2.83362 -4.26589,-6.875888 C 182.57784,82.59415 180.09336,78.825 179.403,78 c -0.69036,-0.825 -4.27584,-6.9 -7.96775,-13.5 -8.18246,-14.62775 -15.13892,-25.053056 -20.42477,-30.609639 -3.97493,-4.178522 -3.97592,-4.178884 -9.74291,-3.554176 -9.64695,1.045003 -21.16445,5.196101 -29.55855,10.653387 -5.0737,3.298589 -16.914225,13.799179 -33.949232,30.107368 -29.356796,28.104255 -35.716511,33.27365 -47.448761,38.56796 -8.043831,3.62987 -8.178647,3.74978 -7.60636,6.76524 0.320438,1.68842 0.697552,3.21194 0.838032,3.38558 0.812113,1.00387 8.997167,-2.35083 11.852446,-4.8578 C 40.109516,110.81865 41,111.15207 41,117.05654 l 0,5.05653 3.166023,-1.80653 c 1.741313,-0.9936 6.352506,-4.84404 10.247095,-8.55654 3.89459,-3.7125 7.597489,-6.75 8.228666,-6.75 1.740627,0 0.184114,5.51829 -3.608438,12.79296 -1.804413,3.46113 -3.059814,6.51391 -2.789779,6.78394 0.270035,0.27004 2.78414,-1.32167 5.586901,-3.53713 6.03871,-4.77332 12.888338,-13.53247 14.689165,-18.78416 0.708297,-2.06559 2.068722,-3.913158 3.023165,-4.105718 1.570416,-0.316831 1.669203,0.348481 1.039382,6.999998 -0.382783,4.04256 -0.952881,9.03761 -1.266883,11.10011 -0.425642,2.7958 -0.220324,3.74926 0.806895,3.74711 1.589103,-0.003 4.852518,-5.45854 11.514019,-19.24711 C 94.22693,95.3875 96.943622,91 97.673305,91 99.346353,91 99.372361,90.681606 97,99.242559 c -1.1,3.969481 -1.985688,8.576291 -1.968197,10.237341 0.03075,2.92015 0.0828,2.95391 1.572678,1.0201 0.847481,-1.1 3.114504,-4.66507 5.037829,-7.92238 1.92332,-3.257316 5.05348,-7.740843 6.95591,-9.963397 4.79507,-5.601961 9.51378,-15.319791 8.80675,-18.136829 -0.31186,-1.242563 -0.12894,-2.529958 0.4065,-2.860878 0.53544,-0.33092 2.62164,2.882488 4.63599,7.140906 7.12232,15.056857 23.05402,38.611468 31.3901,46.409468 6.73113,6.29664 13.88383,11.83311 15.28749,11.83311 0.45373,0 1.69981,-1.9204 2.76906,-4.26755 z m 238.34743,2.43715 c 1.65538,-0.65571 1.65538,-0.86221 0,-4.17435 -1.03433,-2.06951 -3.42906,-4.40967 -5.89712,-5.76272 -5.19519,-2.84815 -19.9269,-15.65495 -24.16885,-21.01086 C 377.05076,100.27629 369.01455,84.915725 367.50347,80 c -0.42267,-1.375 -2.89902,-6.775 -5.503,-12 -2.60398,-5.225 -7.516,-16.549881 -10.91562,-25.166402 -6.17703,-15.65607 -10.02508,-22.437877 -14.33301,-25.26054 -4.31888,-2.829845 -9.26455,-0.193723 -26.50102,14.125481 -8.70496,7.23165 -19.44701,16.895382 -23.87122,21.474958 -4.42421,4.579577 -11.49453,11.178641 -15.71181,14.664589 C 266.4505,71.324033 263,74.558352 263,75.025462 c 0,0.46711 -2.85642,3.272568 -6.34761,6.234351 l -6.3476,5.385061 6.8629,3.294668 c 7.13142,3.423581 10.24598,6.614421 11.34362,11.621448 0.35435,1.61646 1.12711,3.93617 1.71722,5.15492 0.78337,1.61787 0.75489,2.59915 -0.10553,3.63589 -1.43656,1.73095 -8.28871,21.81583 -7.65789,22.44665 1.05798,1.05797 24.297,-17.55616 31.14228,-24.94453 4.71513,-5.08923 21.58612,-27.546442 25.9495,-34.541761 3.78253,-6.064102 7.07005,-8.447922 8.06712,-5.849579 0.27592,0.719033 -1.07658,5.509125 -3.00556,10.644649 -1.92898,5.135523 -3.36699,9.477564 -3.19557,9.64898 0.77227,0.772271 10.69344,-8.080466 12.09661,-10.793902 C 335.07952,73.945554 337,73.759841 337,76.625739 c 0,0.829238 -1.07539,2.94018 -2.38975,4.690983 -3.16134,4.211077 -8.89199,15.734873 -8.17922,16.447644 0.30909,0.309091 3.26416,-1.536445 6.56682,-4.101191 C 336.30051,91.098429 339.22708,89 339.50134,89 c 0.27426,0 0.49698,1.0125 0.49492,2.25 -0.004,2.615921 -3.08438,8.063048 -6.78531,12 -5.25112,5.58601 2.13908,1.41449 9.02069,-5.091884 2.05241,-1.940489 4.00886,-3.250952 4.34767,-2.91214 0.77719,0.777194 -3.07646,11.190814 -5.73741,15.504024 -1.83128,2.96839 -1.8556,3.25 -0.2806,3.25 0.94843,0 3.98727,-2.26286 6.75299,-5.02857 2.76571,-2.76572 5.3721,-4.67822 5.79197,-4.25 0.71175,0.7259 -0.99484,9.58857 -2.60504,13.52857 -1.50805,3.69002 3.28163,1.68956 7.9793,-3.33263 2.79271,-2.98563 5.12296,-4.71389 5.64797,-4.18888 0.52501,0.52501 0.0575,3.32445 -1.13319,6.78517 -1.11482,3.24028 -1.89795,6.2784 -1.74029,6.75138 C 361.59304,125.27912 369,118.09207 369,116.75 c 0,-0.50417 0.52481,-0.74173 1.16625,-0.52792 0.77662,0.25888 1.08701,2.83201 0.92906,7.70195 l -0.23719,7.31319 3.07094,-2.18671 c 2.80004,-1.9938 3.52202,-3.19368 3.18936,-5.30051 -0.20175,-1.27774 1.92108,-0.82382 2.33832,0.5 0.21668,0.6875 0.68523,3.42153 1.04122,6.07563 l 0.64727,4.82563 4.17738,-0.74843 c 4.73251,-0.84789 5.4416,-0.82129 11.67739,0.43805 5.51688,1.11415 10.92002,1.24828 13.24154,0.32872 z M 246.56657,120.98297 C 258.48758,117.93409 267,111.59881 267,105.77559 267,92.221118 231.48127,80.557321 208.4601,86.552001 c -6.60065,1.7188 -12.85728,5.0554 -17.27895,9.214698 -4.20055,3.951303 -5.09024,6.063481 -4.06292,9.645561 1.00875,3.51731 3.31077,5.57825 10.31052,9.23075 15.15544,7.90817 33.66731,10.29665 49.13782,6.33996 z"
       id="path3031"
       inkscape:connector-curvature="0" />
  </g>
  <path
     style="fill:#d8d8d8;fill-opacity:1"
     d="m 223.74232,112.06736 c -9.48999,-1.01237 -17.70521,-3.3491 -25.66835,-7.30108 -8.33512,-4.13659 -10.93338,-6.513738 -11.79185,-10.788378 -0.4539,-2.26014 0.13654,-3.84529 2.35182,-6.31393 8.32605,-9.2783 21.53953,-13.77984 37.23375,-12.68472 14.90021,1.03971 29.10277,6.01168 35.96528,12.59055 3.82554,3.66742 5.06957,7.44948 3.52864,10.72765 -0.84087,1.788898 -3.48108,4.583578 -5.91523,6.261338 -8.53867,5.88536 -22.80197,8.88494 -35.70406,7.50857 z"
     id="path3045"
     inkscape:connector-curvature="0" />
  <path
     style="fill:#d8d8d8;fill-opacity:1"
     d="m 191.20042,206.57024 c -5.25541,-0.54824 -10.33421,-1.94632 -14.38547,-3.96 -7.78893,-3.87148 -19.26276,-11.84177 -21.93708,-15.23859 -2.69677,-3.42533 -2.5023,-6.9866 0.93302,-17.08616 3.04869,-8.9629 6.0246,-17.19912 6.33936,-17.54498 0.27022,-0.29693 0.67159,-0.12702 2.12188,0.89824 4.45467,3.14915 6.28528,4.25019 10.72717,6.45197 12.18281,6.03883 21.11324,7.96138 36.97118,7.95918 10.50015,-0.001 16.54817,-0.71769 23.57253,-2.79154 2.08297,-0.61497 3.87841,-1.11812 3.98986,-1.11812 0.40241,0 -0.21424,2.54978 -3.0737,12.70949 -1.59987,5.68436 -3.43302,12.34637 -4.07366,14.80447 -1.37481,5.27501 -2.08712,6.81785 -3.69112,7.99479 -3.64693,2.67595 -15.27481,6.01089 -24.16693,6.93121 -3.28015,0.33949 -10.02553,0.33445 -13.32704,-0.01 l 0,1e-5 z"
     id="path3051"
     inkscape:connector-curvature="0" />
  <path
     style="fill:#d8d8d8;fill-opacity:1"
     d="m 224.62944,143.96817 c -4.33275,-0.23416 -8.18303,-0.69206 -13.9508,-1.65909 -17.18707,-2.88161 -26.71714,-6.16877 -34.22746,-11.80593 -1.50848,-1.13225 -4.1294,-3.29391 -4.11621,-3.39495 0.0164,-0.12553 10.27892,-25.52541 11.56719,-28.628908 0.25047,-0.60338 0.34844,-0.76804 0.40916,-0.6877 0.29749,0.39358 2.95644,3.363018 3.45983,3.863828 3.33788,3.32077 11.42259,7.52936 19.48704,10.1442 5.70823,1.85085 11.26939,2.84381 18.33205,3.27323 1.71352,0.10418 6.64859,0.10221 8.60877,-0.003 8.73241,-0.47067 16.63156,-2.26667 22.20459,-5.04857 1.20012,-0.59907 1.50971,-0.77975 3.30641,-1.92961 1.5169,-0.9708 2.80995,-1.63904 3.20817,-1.65796 l 0.25854,-0.0123 -0.0275,0.34425 c -0.11308,1.4132 -2.20288,7.35542 -4.79876,13.64499 -2.5425,6.16019 -6.26542,14.26684 -7.59367,16.53516 -1.4063,2.40161 -2.3359,3.16783 -5.19589,4.28274 -3.70145,1.44293 -7.12284,2.20094 -11.89078,2.63442 -1.53715,0.13975 -7.1877,0.20577 -9.04063,0.10563 l 0,0 z"
     id="path3053"
     inkscape:connector-curvature="0" />
  <path
     style="fill:#d8d8d8;fill-opacity:1"
     d="m 205.60562,165.25367 c -2.41451,-0.0789 -4.11238,-0.27187 -7.09747,-0.80665 -12.06684,-2.16181 -24.89696,-7.25765 -31.0259,-12.3228 -0.91271,-0.75429 -3.91049,-3.38207 -3.99117,-3.49856 -0.0773,-0.11167 0.45319,-1.57748 3.79977,-10.4983 1.7879,-4.76591 3.04913,-8.06803 3.10388,-8.12648 0.009,-0.01 1.53611,0.91957 3.39373,2.06467 6.03479,3.72004 7.89024,4.80046 10.40828,6.06068 5.5345,2.76988 10.63891,4.29057 20.40781,6.07981 8.08508,1.48083 13.8024,2.20109 20.79353,2.61953 2.12554,0.12722 8.21518,0.12889 9.83859,0.003 3.79453,-0.29496 5.5787,-0.6208 8.27392,-1.51103 1.96706,-0.64971 2.60722,-0.79072 3.0236,-0.66597 0.84921,0.25443 0.76597,1.25155 -0.38981,4.66931 -1.02572,3.03317 -2.01807,5.61556 -2.62514,6.83138 -1.60465,3.21376 -3.23634,4.31878 -8.96526,6.07151 -3.24791,0.99367 -5.12328,1.36664 -9.84767,1.95848 -4.78619,0.59958 -9.91843,0.97784 -14.14297,1.04238 -1.45849,0.0223 -2.80745,0.0499 -2.99769,0.0613 -0.19024,0.0114 -1.07225,-0.003 -1.96003,-0.032 l 0,1e-5 z"
     id="path3055"
     inkscape:connector-curvature="0" />
  <path
     style="fill:#ffffff;fill-opacity:1"
     d="m 165.83449,125.0773 c -2.10017,-1.35852 -6.61957,-5.01306 -10.68107,-8.63707 -9.00641,-8.03626 -22.55757,-27.427558 -32.60875,-46.662138 -5.16246,-9.8792 -5.97889,-10.60466 -6.16098,-5.4745 -0.15691,4.42082 -3.19327,10.57206 -8.98955,18.21159 -1.88309,2.48191 -4.82679,6.73871 -6.54157,9.45956 -4.948931,7.8525 -5.861948,9.122578 -6.26685,8.717678 -0.536685,-0.53668 0.23629,-5.210418 2.055421,-12.427928 1.850257,-7.34099 1.887477,-7.77385 0.668527,-7.77385 -1.271873,0 -3.463986,3.50846 -8.813764,14.10638 -6.416336,12.710758 -9.028544,16.500698 -9.867035,14.315628 -0.11677,-0.3043 0.190311,-3.99588 0.682399,-8.20351 0.492088,-4.207638 0.84888,-8.848248 0.792876,-10.312468 -0.09241,-2.41583 -0.172028,-2.67222 -0.860321,-2.77033 -1.033746,-0.14737 -2.73923,1.95357 -3.974714,4.89633 -2.643745,6.29706 -10.043035,15.046558 -16.677516,19.720798 -1.43548,1.01135 -2.665269,1.67291 -2.732861,1.47014 -0.06759,-0.20278 1.019299,-2.79182 2.415317,-5.75343 4.342735,-9.212978 5.460004,-13.335258 3.614272,-13.335258 -0.779392,0 -2.316201,1.22687 -8.917809,7.119278 -6.583381,5.87614 -8.223936,7.19566 -10.865724,8.73944 l -1.855124,1.08407 0,-4.25434 c 0,-6.50102 -0.45799,-6.81239 -5.019772,-3.41283 -3.100787,2.31078 -7.398589,4.51575 -10.281957,5.27509 -2.022838,0.53272 -2.102589,0.45569 -2.706605,-2.61447 -0.349818,-1.77809 -0.329572,-2.22223 0.133517,-2.929 0.342481,-0.52269 3.082942,-2.07861 7.355216,-4.175978 12.881075,-6.32367 15.515037,-8.43675 44.091915,-35.37248 26.310292,-24.79931 33.239662,-30.87629 39.448712,-34.59609 5.49742,-3.29347 13.97248,-6.56732 21.19333,-8.18682 4.36521,-0.97904 9.63694,-1.49711 11.21187,-1.10182 1.25024,0.31379 2.97573,1.88676 6.02667,5.49396 5.46536,6.46183 9.42351,12.49775 18.67138,28.47262 3.48773,6.02474 7.65446,12.9417 9.25942,15.37103 3.68774,5.58192 8.31949,12.99321 8.31949,13.31205 0,0.13376 -0.78361,1.37672 -1.74135,2.76214 -1.17891,1.70536 -2.30661,4.05295 -3.49142,7.26832 -2.18825,5.93847 -9.94141,25.268638 -11.55675,28.813278 -1.25504,2.75399 -2.49655,4.73467 -2.96775,4.73467 -0.15098,0 -1.21347,-0.60738 -2.36109,-1.34974 l 0,0 z"
     id="path4173"
     inkscape:connector-curvature="0" />
  <path
     style="fill:#ffffff;fill-opacity:1"
     d="m 401.73376,125.13161 c -0.68021,-0.0672 -3.22438,-0.46802 -5.65371,-0.89063 -5.00608,-0.87086 -8.4487,-0.91636 -12.54417,-0.16581 -1.55477,0.28494 -2.85353,0.49322 -2.88613,0.46285 -0.0326,-0.0304 -0.45728,-2.48823 -0.94373,-5.46191 -0.48645,-2.97369 -1.07553,-5.63694 -1.30907,-5.91835 -0.23355,-0.2814 -0.80269,-0.51164 -1.26475,-0.51164 -0.70095,0 -0.84013,0.17853 -0.84013,1.07762 0,1.663 -0.86857,2.97537 -3.08921,4.66768 -1.11895,0.85274 -2.22283,1.66097 -2.45306,1.79607 -0.31735,0.18622 -0.40282,-1.35859 -0.35336,-6.38638 0.0486,-4.93845 -0.0536,-6.84049 -0.4003,-7.44839 -0.58815,-1.03139 -1.51239,-0.87392 -2.10297,0.35831 -0.51668,1.07802 -5.32929,6.04625 -6.42478,6.63254 -1.00745,0.53917 -0.96787,0.23541 0.6894,-5.29109 1.59706,-5.3257 1.82816,-7.77385 0.73383,-7.77385 -0.82695,0 -2.15844,1.04766 -5.8575,4.60887 -3.24057,3.1198 -5.29303,4.57841 -6.44245,4.57841 -1.03068,0 -1.01911,-0.5267 0.0877,-3.99249 0.94777,-2.9677 1.93776,-8.082468 1.93776,-10.011398 0,-2.17202 -1.31027,-1.51507 -6.36043,3.18898 -3.26952,3.045458 -5.7667,4.807838 -6.8124,4.807838 -0.36684,0 -0.61398,-0.11926 -0.5492,-0.26502 0.0648,-0.14576 1.18454,-2.41166 2.48836,-5.035328 3.51113,-7.06549 5.45035,-13.4462 4.07819,-13.41872 -0.51899,0.0104 -2.14666,1.25167 -6.67575,5.09095 -3.36194,2.8499 -7.35211,5.63678 -7.64755,5.34133 -0.0895,-0.0895 0.8585,-1.4021 2.10676,-2.91681 4.07834,-4.94884 6.026,-8.64435 6.026,-11.4338 0,-3.07873 0.61586,-3.32198 -8.85818,3.4987 -2.20347,1.58636 -4.16207,2.88428 -4.35244,2.88428 -0.1926,0 -0.24247,-0.35263 -0.11243,-0.79505 0.56391,-1.91856 4.9559,-10.36902 7.56478,-14.5551 2.72904,-4.37888 3.19004,-5.61371 2.63539,-7.05911 -0.11797,-0.30741 -0.58608,-0.55894 -1.04025,-0.55894 -0.61527,0 -1.33785,0.68041 -2.83472,2.66928 -2.67471,3.55386 -10.41071,10.51019 -11.01554,9.90536 -0.13462,-0.13462 0.98481,-3.85379 2.48763,-8.26483 3.76026,-11.03702 3.94563,-12.43701 1.64676,-12.43701 -1.63057,0 -3.36826,1.87093 -8.12926,8.75254 -11.81085,17.0716 -23.16887,31.51537 -28.83527,36.669268 -9.45368,8.59864 -25.76894,21.27459 -26.47448,20.56904 -0.44336,-0.44335 4.88895,-16.25743 6.98004,-20.70079 l 1.38508,-2.943158 -1.25337,-3.62991 c -0.68936,-1.99645 -1.25338,-3.8666 -1.25338,-4.15588 0,-1.25541 -2.26226,-4.93794 -4.01688,-6.53871 -1.83872,-1.6775 -7.15799,-4.77055 -11.44248,-6.65359 -1.21466,-0.53384 -2.20848,-1.07171 -2.20848,-1.19526 0,-0.12355 1.2266,-1.24826 2.72578,-2.49935 4.75805,-3.97067 9.1228,-8.04736 9.62933,-8.99383 0.26947,-0.50351 3.52296,-3.57293 7.22996,-6.82092 3.70701,-3.24799 9.92023,-9.01144 13.80715,-12.80767 7.83133,-7.64858 11.13214,-10.66897 20.4947,-18.75356 16.79803,-14.50512 24.40602,-19.7681896 28.57577,-19.7681896 3.34932,0 6.25333,2.65877 9.84172,9.0105996 1.90915,3.3794 4.20344,8.5295 9.28748,20.84806 3.62341,8.77945 6.91858,16.20142 11.29549,25.4417 1.10469,2.33215 2.89005,6.38692 3.96746,9.0106 2.89332,7.0457 8.06155,16.96355 11.41642,21.90812 3.20499,4.72369 16.95263,16.886108 25.71604,22.750768 2.94103,1.96819 4.31478,3.483 5.58769,6.16142 0.68166,1.43435 0.79906,1.99435 0.49491,2.36083 -0.79375,0.95641 -4.50092,1.39379 -8.4798,1.00046 l 0,0 z"
     id="path4175"
     inkscape:connector-curvature="0"
     inkscape:export-xdpi="90"
     inkscape:export-ydpi="90" />
  <path
     style="fill:#ffffff;fill-opacity:1"
     d="m 165.44868,124.78956 c -3.25359,-2.21296 -9.91243,-7.8403 -13.115,-11.08337 -8.74405,-8.85467 -21.21399,-27.359768 -30.47868,-45.229678 -4.38269,-8.45341 -5.2065,-9.08932 -5.446,-4.2038 -0.21646,4.41554 -3.22605,10.59458 -8.65689,17.7736 -2.96307,3.91687 -4.06111,5.53586 -10.062722,14.83685 -3.175014,4.920458 -3.700837,5.037208 -3.067625,0.68108 0.220869,-1.51945 1.138798,-5.72998 2.039848,-9.35672 0.901047,-3.62674 1.541317,-6.8467 1.422837,-7.15548 -0.11849,-0.30877 -0.53252,-0.5614 -0.92007,-0.5614 -1.097728,0 -3.181679,3.39501 -8.676032,14.13428 -5.75312,11.245058 -7.986258,14.840988 -9.216537,14.840988 -0.848258,0 -0.842795,-1.21301 0.03946,-8.75677 1.038788,-8.882228 1.05141,-12.898178 0.04115,-13.091168 -1.091163,-0.20845 -2.33422,1.34917 -4.322909,5.41684 -2.315696,4.73653 -5.535848,9.088228 -10.220258,13.811608 -3.561003,3.59063 -8.722636,7.55083 -8.950518,6.86719 -0.06759,-0.20278 1.021653,-2.79182 2.420547,-5.75343 4.298678,-9.100758 5.444703,-13.335258 3.609042,-13.335258 -0.779392,0 -2.316201,1.22687 -8.917809,7.119278 -6.583381,5.87614 -8.223936,7.19566 -10.865724,8.73944 l -1.855124,1.08407 0,-4.03143 c 0,-4.44823 -0.327904,-5.84422 -1.372746,-5.84422 -0.375937,0 -2.017099,0.99381 -3.647026,2.20848 -3.100787,2.31078 -7.398589,4.51575 -10.281957,5.27509 -2.022838,0.53272 -2.102589,0.45569 -2.706605,-2.61447 -0.349818,-1.77809 -0.329572,-2.22223 0.133517,-2.929 0.342481,-0.52269 3.082942,-2.07861 7.355216,-4.175978 12.732509,-6.25073 15.856302,-8.75405 43.729142,-35.04328 25.625151,-24.16924 33.739213,-31.28744 39.811483,-34.92529 5.49742,-3.29347 13.97248,-6.56732 21.19333,-8.18682 4.36521,-0.97904 9.63694,-1.49711 11.21187,-1.10182 1.25024,0.31379 2.97573,1.88676 6.02667,5.49396 5.44087,6.43288 9.34096,12.37662 18.68284,28.47262 3.49666,6.02474 7.66359,12.9417 9.25983,15.37103 3.67646,5.59524 8.30762,13.00187 8.30762,13.28643 0,0.11966 -0.7745,1.37554 -1.72111,2.79084 -0.94661,1.4153 -2.15781,3.74351 -2.69156,5.1738 -1.81305,4.85845 -10.347,26.259548 -11.81626,29.632318 -1.54186,3.53943 -2.99677,6.00707 -3.54174,6.00707 -0.1793,0 -1.40938,-0.73687 -2.7335,-1.63748 z"
     id="path4177"
     inkscape:connector-curvature="0" />
  <path
     style="fill:#ffffff;fill-opacity:1"
     d="m 401.55709,125.11841 c -0.77739,-0.0714 -3.24205,-0.4579 -5.47704,-0.85895 -4.72214,-0.84737 -8.57325,-0.90276 -12.54417,-0.18044 -1.55477,0.28282 -2.85353,0.48937 -2.88613,0.459 -0.0326,-0.0304 -0.45728,-2.48823 -0.94373,-5.46191 -0.48645,-2.97369 -1.07553,-5.63694 -1.30907,-5.91835 -0.23355,-0.2814 -0.80269,-0.51164 -1.26475,-0.51164 -0.70095,0 -0.84013,0.17853 -0.84013,1.07762 0,1.663 -0.86857,2.97537 -3.08921,4.66768 -1.11895,0.85274 -2.22571,1.66275 -2.45945,1.80002 -0.32585,0.19136 -0.40836,-1.29825 -0.35371,-6.38639 0.0731,-6.804 -0.15941,-8.22607 -1.3448,-8.22607 -0.2797,0 -0.745,0.45727 -1.03401,1.01616 -0.59997,1.16022 -5.45169,6.16464 -6.5425,6.74843 -1.00745,0.53917 -0.96787,0.23541 0.6894,-5.29109 1.60231,-5.34321 1.82902,-7.77385 0.72506,-7.77385 -0.72882,0 -3.95539,2.55656 -6.02541,4.77419 -1.86584,1.99891 -5.26993,4.41309 -6.22262,4.41309 -1.01567,0 -1.08284,-0.65435 -0.29471,-2.87077 0.87035,-2.44762 1.89911,-7.165218 2.14912,-9.855238 0.20688,-2.22595 0.16698,-2.46834 -0.40635,-2.46834 -0.79631,0 -2.3945,1.21236 -6.00283,4.55361 -3.12577,2.894418 -5.61648,4.633668 -6.63572,4.633668 -0.36684,0 -0.61398,-0.11926 -0.5492,-0.26502 0.0648,-0.14576 1.18454,-2.41166 2.48836,-5.035328 3.56419,-7.17225 5.44631,-13.42756 4.04014,-13.42756 -0.26387,0 -2.45026,1.64438 -4.85866,3.65418 -4.57242,3.81567 -9.11415,7.09939 -9.41,6.80354 -0.095,-0.095 0.77537,-1.334 1.93411,-2.75337 4.83588,-5.92357 6.35511,-9.0687 6.1538,-12.73969 -0.0313,-0.57018 -0.25696,-0.97173 -0.54619,-0.97173 -0.27109,0 -1.74194,0.90249 -3.26855,2.00553 -6.61164,4.77721 -9.07177,6.47503 -9.3823,6.47503 -0.18229,0 -0.22627,-0.35777 -0.0977,-0.79505 0.56259,-1.91405 4.93419,-10.34083 7.37835,-14.22262 1.46844,-2.33215 2.76743,-4.74324 2.88665,-5.35797 0.31514,-1.62486 -0.0921,-2.59256 -1.09108,-2.59256 -0.6327,0 -1.33511,0.65817 -2.84872,2.66928 -2.6576,3.53112 -10.4101,10.51079 -11.00919,9.9117 -0.13113,-0.13113 1.07561,-4.11435 2.68165,-8.8516 2.25108,-6.63989 2.89483,-8.96449 2.80988,-10.14655 -0.10332,-1.43757 -0.18046,-1.54016 -1.23478,-1.6423 -1.64216,-0.1591 -3.29993,1.5115 -7.39375,7.45096 -12.02625,17.4481 -23.97238,32.694 -29.69949,37.903118 -9.45368,8.59864 -25.76894,21.27459 -26.47448,20.56904 -0.44336,-0.44335 4.88895,-16.25743 6.98004,-20.70079 l 1.38508,-2.943158 -1.25337,-3.62991 c -0.68936,-1.99645 -1.25338,-3.8666 -1.25338,-4.15588 0,-1.24406 -2.26013,-4.93951 -3.95048,-6.45928 -1.93731,-1.74181 -7.05383,-4.75363 -11.16743,-6.57366 -1.41555,-0.62631 -2.52863,-1.26078 -2.47349,-1.40994 0.0551,-0.14916 1.84935,-1.76732 3.98716,-3.5959 3.99358,-3.41592 6.58107,-5.89278 9.36396,-8.9636 0.87456,-0.96505 4.4523,-4.26997 7.95053,-7.34426 3.49823,-3.0743 8.9841,-8.1619 12.19081,-11.30578 7.79873,-7.64591 9.8038,-9.48918 18.90493,-17.37938 13.33019,-11.55659 21.4539,-17.7749896 26.08072,-19.9638596 5.39837,-2.55386 8.9897,-0.46999 13.7444,7.9751796 2.00161,3.5552 3.39738,6.67371 8.96467,20.02929 4.4808,10.74918 7.40269,17.35964 11.4512,25.90711 1.19668,2.5265 3.12485,6.87535 4.28483,9.6641 3.03921,7.30668 7.92744,16.67799 11.27108,21.60798 2.884,4.25228 16.19674,16.182618 24.13159,21.625768 4.52395,3.10334 5.80142,4.40107 7.17267,7.28642 1.07709,2.2664 0.86504,2.67638 -1.66493,3.21896 -1.7013,0.36486 -3.53242,0.40126 -6.49663,0.12913 l 0,0 z"
     id="path4179"
     inkscape:connector-curvature="0" />
  <text
     xml:space="preserve"
     style="font-size:28px;font-style:normal;font-variant:normal;font-weight:bold;font-stretch:normal;line-height:125%;letter-spacing:0px;word-spacing:0px;fill:#000000;fill-opacity:1;stroke:none;font-family:Bookman Old Style;-inkscape-font-specification:Sans Bold"
     x="120"
     y="315"
     id="text2993"
     sodipodi:linespacing="125%"><tspan
       sodipodi:role="line"
       id="tspan2995"
       x="120"
       y="315">flywaydb.org</tspan></text>
</svg>
