<?xml version="1.0" encoding="UTF-8" standalone="no"?>
<svg
   xmlns:dc="http://purl.org/dc/elements/1.1/"
   xmlns:cc="http://creativecommons.org/ns#"
   xmlns:rdf="http://www.w3.org/1999/02/22-rdf-syntax-ns#"
   xmlns:svg="http://www.w3.org/2000/svg"
   xmlns="http://www.w3.org/2000/svg"
   xmlns:sodipodi="http://sodipodi.sourceforge.net/DTD/sodipodi-0.dtd"
   xmlns:inkscape="http://www.inkscape.org/namespaces/inkscape"
   width="158"
   height="57"
   viewBox="0 0 378 135.6"
   id="svg3413"
   version="1.1"
   inkscape:version="0.91 r13725"
   sodipodi:docname="bootique.svg">
  <metadata
     id="metadata3425">
    <rdf:RDF>
      <cc:Work
         rdf:about="">
        <dc:format>image/svg+xml</dc:format>
        <dc:type
           rdf:resource="http://purl.org/dc/dcmitype/StillImage" />
      </cc:Work>
    </rdf:RDF>
  </metadata>
  <defs
     id="defs3423" />
  <sodipodi:namedview
     pagecolor="#ffffff"
     bordercolor="#666666"
     borderopacity="1"
     objecttolerance="10"
     gridtolerance="10"
     guidetolerance="10"
     inkscape:pageopacity="0"
     inkscape:pageshadow="2"
     inkscape:window-width="1855"
     inkscape:window-height="1056"
     id="namedview3421"
     showgrid="false"
     inkscape:zoom="3.5767196"
     inkscape:cx="100.09172"
     inkscape:cy="56.616571"
     inkscape:window-x="65"
     inkscape:window-y="24"
     inkscape:window-maximized="1"
     inkscape:current-layer="svg3413" />
  <g
     id="g3415"
     style="clip-rule:evenodd;fill:#1a1a18;fill-rule:evenodd">
    <path
       d="M 6.3,129.5 C 56.8,116.4 152,100 236.8,90.4 c -1.7,2.6 -3.1,5.4 -4.2,8.3 -0.8,2 -1.3,4 -1.7,6.1 C 217,106 203,107.3 189,108.5 126.6,114 55.3,123.7 9.5,135.6 L 6.3,129.5 Z M 257.8,88 c 45.3,-4.6 81.9,-8.2 109.1,-6.6 l -5.4,16.3 c -32.9,-1.9 -63.2,1.4 -107.5,5 l 0,-0.3 c 0.1,-2.1 0.4,-4.1 0.7,-6.2 0.2,-1 0.3,-2 0.5,-2.9 0.1,-0.8 0.3,-1.7 0.5,-2.5 0.7,-1 1.4,-1.9 2.1,-2.8 z"
       id="path3417"
       inkscape:connector-curvature="0" />
    <path
       d="m 120.2,70.3 c 0,1.3 0.1,2.6 0.2,3.9 0.1,1.3 0.4,2.4 0.9,3.3 0.4,0.9 1,1.7 1.8,2.2 0.7,0.5 1.7,0.7 2.9,0.6 1.3,-0.2 2.5,-0.6 3.6,-1.3 1.1,-0.8 2.1,-1.7 3,-2.8 0.9,-1.1 1.7,-2.3 2.4,-3.7 0.7,-1.4 1.3,-2.8 1.8,-4.2 -0.5,0.1 -1,0.3 -1.5,0.3 -0.5,0.1 -1,0.2 -1.6,0.2 -2.8,0.3 -5.2,-0.2 -7.2,-1.6 -2,-1.4 -3.6,-3.3 -4.7,-5.8 -0.4,1.6 -0.8,3.1 -1.1,4.6 -0.3,1.6 -0.5,3 -0.5,4.3 z M 21.1,66.8 c -1,4.1 -2.1,8.5 -3.1,13.2 -1,4.1 -2,8.8 -3.1,14.2 -1.1,5.4 -2.3,11.1 -3.5,17.2 0.4,0.3 1,0.5 1.8,0.6 0.7,0.1 1.5,0.1 2.2,0.2 0.8,0.1 1.7,0 2.6,-0.1 3.3,-0.4 6.6,-1.5 10.1,-3.2 3.4,-1.8 6.5,-4.1 9.4,-6.9 2.9,-2.8 5.3,-6.1 7.2,-9.9 1.9,-3.8 3.1,-7.9 3.5,-12.3 0.2,-2 0,-3.8 -0.4,-5.3 -0.4,-1.5 -1,-2.9 -1.8,-4.1 -0.8,-1.2 -1.7,-2.2 -2.6,-3.1 -1,-0.9 -2,-1.6 -3.1,-2.2 -3.4,2.2 -7.1,4.2 -11.1,5.9 -1.3,0.5 -2.4,0.7 -3.4,0.6 -1,-0.2 -1.8,-0.5 -2.4,-0.9 -0.7,-0.5 -1.2,-1 -1.5,-1.7 -0.5,-0.9 -0.7,-1.5 -0.8,-2.2 z M 23,59.3 c -0.1,0.7 -0.3,1.5 -0.5,2.3 -0.2,0.8 -0.4,1.5 -0.6,2.4 0.9,-1.1 2.4,-2.1 4.5,-3.2 2.1,-1 4.1,-1.7 6,-1.9 1,-0.1 2,-0.2 3,-0.2 0.9,0 1.9,0 2.7,0.1 2,-1.6 4,-3.5 6,-5.8 1.9,-2.3 3.6,-4.8 5,-7.3 1.4,-2.6 2.6,-5.1 3.5,-7.7 0.9,-2.6 1.5,-5 1.7,-7.1 0.4,-5.1 -0.4,-8.8 -2.6,-11 -2.2,-2.2 -5.2,-3.1 -9.2,-2.6 -2.6,0.3 -5.4,1.1 -8.2,2.4 -0.6,2 -1.3,4.4 -2.2,7.4 -0.9,2.9 -1.8,6.1 -2.8,9.6 -1,3.5 -2,7.2 -3.1,11 C 25,51.5 23.9,55.4 23,59.3 Z M 59.4,82 c -0.4,5 -1.9,9.5 -4.4,13.7 -2.5,4.2 -5.6,7.8 -9.5,11 -3.9,3.1 -8.2,5.7 -13,7.6 -4.8,2 -9.8,3.2 -15,3.8 -1.9,0.2 -3.7,0.3 -5.3,0.3 C 10.5,118.3 9.1,118.2 7.8,118 6.5,117.8 5.4,117.6 4.4,117.3 3.5,117.1 2.8,116.9 2.5,116.7 1.8,116.4 1.3,116 0.9,115.5 0.5,115 0.3,114.2 0.2,113.2 c -0.1,-0.6 -0.1,-1 -0.1,-1.4 0,-0.3 0,-0.7 0.1,-1.1 0.1,-0.4 0.2,-0.9 0.4,-1.5 0.2,-0.6 0.4,-1.5 0.7,-2.7 C 1.5,105.8 2,103.7 3,100.1 4,96.5 5.2,92.1 6.6,86.9 8,81.7 9.5,76.1 11.2,70 12.8,63.9 14.4,58.1 16,52.4 17.5,46.7 18.9,41.6 20.2,37 c 1.3,-4.6 2.2,-8 2.8,-10.2 -1,0.9 -2,1.7 -3,2.7 -1,0.9 -2,1.9 -3,3 -1.1,1.1 -2.2,1.6 -3.2,1.4 -1.1,-0.2 -1.8,-1 -2.3,-2.4 -0.1,-0.7 -0.2,-1.5 -0.3,-2.3 -0.1,-0.6 -0.1,-1.4 0.1,-2.3 0.1,-0.9 0.4,-1.7 0.8,-2.6 2.4,-1.7 4.8,-3.3 7.1,-4.6 2.3,-1.3 4.5,-2.5 6.6,-3.5 0.5,-1.3 0.9,-2.3 1.5,-3 0.5,-0.7 1.1,-1.2 1.7,-1.5 0.6,-0.3 1.2,-0.4 1.9,-0.4 0.7,0 1.4,0 2.1,0.1 1.6,0.2 2.7,0.6 3.2,1.2 1,-0.3 2,-0.5 3,-0.7 1,-0.2 2,-0.3 3,-0.5 4.3,-0.5 8,-0.4 11.1,0.3 3.2,0.7 5.7,1.9 7.8,3.5 2,1.6 3.5,3.6 4.4,6 0.9,2.4 1.2,5 1,7.8 -0.2,2.4 -0.9,5 -1.9,7.8 -1.1,2.7 -2.5,5.5 -4.2,8.2 -1.7,2.7 -3.8,5.4 -6.2,8.1 -2.3,2.7 -5,5.1 -7.8,7.5 2.3,1.1 4.3,2.4 6,3.9 1.8,1.6 3.2,3.3 4.4,5.2 1.2,1.9 2,3.9 2.5,6 0.1,2.2 0.2,4.3 0.1,6.3 z m 16.5,-6.5 c 0,1.3 0.1,2.6 0.2,3.9 0.1,1.3 0.4,2.4 0.9,3.3 0.4,0.9 1,1.7 1.8,2.2 0.7,0.5 1.7,0.7 2.9,0.6 1.3,-0.2 2.5,-0.6 3.6,-1.3 1.1,-0.8 2.1,-1.7 3,-2.8 0.9,-1.1 1.7,-2.3 2.4,-3.7 0.7,-1.4 1.3,-2.8 1.8,-4.2 -0.5,0.1 -1,0.3 -1.5,0.3 -0.5,0.1 -1,0.2 -1.6,0.2 -2.8,0.3 -5.2,-0.2 -7.2,-1.6 -2,-1.4 -3.6,-3.3 -4.7,-5.8 -0.4,1.6 -0.8,3.1 -1.1,4.6 -0.4,1.6 -0.5,3 -0.5,4.3 z m 7,-20.2 c 1.1,-1.5 2.3,-2.7 3.6,-3.7 1.3,-0.9 2.6,-1.5 4,-1.6 0.9,-0.1 1.6,0.2 2.3,0.9 0.6,0.7 1.1,1.6 1.5,2.8 0.4,1.2 0.7,2.5 0.8,3.9 0.1,1.4 0.1,2.9 0,4.3 0,0.6 -0.1,1.3 -0.3,2.1 -0.2,0.8 -0.4,1.7 -0.6,2.7 -0.4,0.1 -0.7,0.2 -1.1,0.3 -0.4,0.1 -0.7,0.1 -1.1,0.2 -2.3,0.3 -4,0.1 -5.3,-0.4 -1.3,-0.6 -2.2,-1.3 -2.8,-2.3 -0.6,-1 -1,-2.1 -1.1,-3.3 -0.2,-1.3 -0.2,-2.5 -0.2,-3.7 0,-0.8 0.1,-1.5 0.3,-2.2 z m 18.6,14.6 c -0.7,2.9 -1.7,5.6 -3,8.2 -1.2,2.6 -2.7,4.8 -4.4,6.8 -1.7,2 -3.7,3.6 -5.8,4.8 -2.2,1.3 -4.5,2 -7.1,2.3 -3,0.4 -5.4,0 -7.1,-1.1 -1.7,-1.1 -3,-2.5 -3.8,-4.3 -0.8,-1.8 -1.4,-3.8 -1.5,-6.1 -0.2,-2.3 -0.3,-4.4 -0.3,-6.4 0,-1.4 0.2,-2.9 0.5,-4.7 0.3,-1.7 0.8,-3.5 1.4,-5.3 0.6,-1.8 1.4,-3.7 2.3,-5.5 0.9,-1.9 2,-3.6 3.2,-5.2 0.4,-1.3 1.1,-2.5 2,-3.5 0.9,-1.1 2,-2 3.2,-2.7 1.2,-0.8 2.5,-1.4 3.9,-1.9 1.4,-0.5 2.7,-0.8 4.1,-1 l 0.6,0 c 0.2,0.1 0.4,0.1 0.6,0.2 1,0 2.1,0.2 3.6,0.7 1.4,0.5 2.8,1.3 4.2,2.5 1.4,1.2 2.5,2.7 3.5,4.6 0.9,1.9 1.4,4.3 1.4,7.2 0,0.6 0,1.3 -0.1,2.2 -0.1,0.9 -0.2,1.6 -0.2,2.2 1.7,-0.9 3.5,-1.9 5.3,-3 1.8,-1.2 3.6,-2.4 5.4,-3.7 1.1,-0.8 2.2,-1.7 3.2,-2.5 0.2,-0.4 0.3,-0.7 0.5,-1.1 0.9,-1.9 2,-3.6 3.2,-5.2 0.5,-1.3 1.1,-2.5 2,-3.5 0.9,-1.1 2,-2 3.2,-2.7 1.2,-0.8 2.5,-1.4 3.9,-1.9 1.4,-0.5 2.7,-0.8 4.1,-1 l 0.6,0 c 0.2,0.1 0.4,0.1 0.6,0.2 1,0 2.1,0.2 3.6,0.7 1.4,0.5 2.8,1.3 4.2,2.5 1.4,1.2 2.5,2.7 3.5,4.6 0.9,1.9 1.4,4.3 1.4,7.2 0,0.6 0,1.3 -0.1,2.2 -0.1,0.9 -0.2,1.6 -0.2,2.2 1.7,-0.9 3.5,-1.9 5.3,-3 1.8,-1.2 3.6,-2.4 5.4,-3.7 1.7,-1.3 3.3,-2.5 4.8,-3.8 0.9,-0.8 1.7,-1.5 2.4,-2.2 0.4,-2.3 0.9,-4.7 1.4,-7.2 0.9,-4.7 1.9,-9.2 2.9,-13.6 -1.3,0.3 -2.5,0.6 -3.8,0.9 -1.2,0.3 -2.4,0.5 -3.4,0.6 -2.3,0.3 -4.6,0.3 -6.7,0 -2.1,-0.3 -3.6,-0.7 -4.7,-1 -0.6,-0.2 -0.8,-0.6 -0.8,-1.2 0.1,-0.6 0.3,-1.1 0.7,-1.7 0.4,-0.6 0.8,-1.1 1.4,-1.6 0.5,-0.5 1,-0.7 1.5,-0.8 1.4,0 2.9,-0.1 4.5,-0.1 1.6,-0.1 3.4,-0.3 5.3,-0.6 1.4,-0.2 2.7,-0.5 4,-0.8 1.3,-0.3 2.6,-0.6 3.8,-1 1,-3.6 1.9,-6.8 2.8,-9.5 0.9,-2.7 1.7,-4.6 2.5,-5.7 0.2,-0.4 0.7,-0.8 1.5,-1.1 0.8,-0.4 1.6,-0.6 2.5,-0.9 0.9,-0.2 1.7,-0.3 2.5,-0.3 0.8,0 1.4,0.2 1.8,0.6 0.4,0.6 0.5,2 0.4,4.5 -0.1,2.4 -0.5,5.6 -1.2,9.4 3.1,-0.4 5.8,-0.5 8.2,-0.5 2.4,0.1 4.4,0.2 6.1,0.4 1.7,0.2 3,0.5 4.1,0.7 1,0.3 1.8,0.5 2.3,0.6 0.5,0.1 0.8,0.4 0.8,1 0,0.6 -0.1,1.2 -0.3,1.8 -0.3,0.7 -0.7,1.2 -1.3,1.7 -0.6,0.5 -1.2,0.7 -2,0.7 -0.7,0 -1.6,0 -2.5,-0.2 -0.9,-0.1 -2,-0.2 -3.3,-0.2 -1.3,0 -2.8,0 -4.6,0.1 -1.8,0.1 -3.8,0.2 -6.2,0.5 -0.4,0.1 -0.9,0.1 -1.5,0.2 -0.5,0.1 -1.1,0.2 -1.7,0.3 -0.3,1.2 -0.6,2.4 -0.8,3.6 -0.3,1.2 -0.6,2.4 -1,3.7 -1,3 -2.1,6.4 -3.3,10 -1.1,3.1 -2.4,6.7 -4,10.8 -1.5,4.1 -3.3,8.4 -5.2,13 -0.4,3.2 -0.4,5.6 0.2,7.2 0.5,1.6 1.2,2.7 2,3.3 0.9,0.7 2.1,1 3.5,0.9 1.1,0 2.4,-0.5 4,-1.6 1.6,-1.1 3.2,-2.5 4.9,-4.3 1.7,-1.7 3.4,-3.6 5.1,-5.7 1.7,-2 3.3,-4 4.8,-5.9 1.1,-1.4 2.1,-2.7 2.9,-4 l 0.3,-1.5 c 0.6,-3.4 1.4,-6.7 2.3,-9.8 0.9,-3.1 2,-5.5 3.1,-7.1 0.4,-0.5 1.1,-0.9 2.1,-1.4 1,-0.4 2.1,-0.8 3.2,-1.1 1.1,-0.3 2.1,-0.5 3,-0.7 0.9,-0.1 1.4,-0.2 1.6,-0.2 0.1,0.1 -0.1,0.9 -0.5,2.4 -0.5,1.5 -1,3.3 -1.7,5.4 -0.7,2 -1.4,4.2 -2.1,6.3 -0.7,2.2 -1.3,3.9 -1.7,5.3 -0.4,1.4 -0.8,2.9 -1.3,4.6 -0.5,1.7 -1,3.4 -1.4,5 -0.4,1.6 -0.7,3.1 -0.8,4.5 -0.1,1.4 0,2.5 0.3,3.2 0.4,0.8 0.8,1.4 1.2,1.7 0.4,0.3 0.9,0.4 1.4,0.3 1.5,-0.2 3.3,-1.2 5.6,-3.1 2.2,-1.9 4.5,-4.1 6.8,-6.6 2.2,-2.4 4.3,-4.8 6.2,-7.3 0.3,-1.5 0.8,-3 1.3,-4.6 1.3,-3.6 3.1,-7 5.3,-10.1 2.2,-3.1 4.7,-5.8 7.5,-7.9 2.8,-2.1 5.7,-3.4 8.6,-3.7 1.8,-0.2 3.4,0 4.6,0.6 1.2,0.6 2.3,1.4 3.1,2.4 0.8,1 1.4,2.1 1.8,3.3 0.4,1.2 0.7,2.3 0.8,3.2 0.1,-0.9 0.3,-1.8 0.4,-2.8 0.2,-0.8 0.3,-1.7 0.4,-2.7 0.2,-1 0.3,-1.9 0.4,-2.8 0.4,-0.4 0.9,-0.8 1.5,-1.1 0.5,-0.3 1.1,-0.5 1.7,-0.7 0.7,-0.2 1.3,-0.4 2,-0.6 0.7,-0.1 1.3,-0.1 1.9,-0.1 1.2,0 2,0.3 2.4,0.9 -2.1,7 -3.5,12.2 -4.4,15.7 -0.5,2 -0.9,3.7 -1.2,5.1 -0.3,1 -0.7,2.7 -1.3,4.9 -0.6,2.2 -1.2,4.7 -1.9,7.6 -0.7,2.9 -1.5,6 -2.3,9.2 -0.8,3.3 -1.6,6.5 -2.3,9.7 1.6,-1.8 3.4,-3.7 5.2,-5.8 1.9,-2 3.8,-4.2 5.7,-6.4 1.9,-2.2 3.8,-4.4 5.7,-6.8 1.8,-2.2 3.5,-4.5 5.1,-6.7 0.1,-1.3 0.2,-2.6 0.4,-4 0.4,-2.5 0.8,-4.8 1.3,-7 0.5,-2.2 1,-4 1.4,-5.5 0.4,-1.5 0.7,-2.5 0.8,-2.9 0.7,-2.2 1.5,-4.2 2.6,-5.9 1,-1.7 2.5,-2.9 4.4,-3.8 0.7,-0.2 1.5,-0.5 2.3,-0.7 0.7,-0.2 1.3,-0.3 2,-0.4 0.7,-0.1 1.4,0 1.9,0.1 -2,5.3 -3.5,9.7 -4.7,13.2 -1.1,3.5 -2,6.4 -2.6,8.6 -0.7,2.5 -1.1,4.5 -1.2,6 -0.4,3.3 -0.1,5.8 0.9,7.4 1,1.6 2.9,2.2 5.8,1.8 1.9,-0.2 3.7,-1.2 5.5,-2.8 1.8,-1.6 3.4,-3.7 4.8,-6.1 -0.2,-1.2 -0.3,-2.3 -0.3,-3.6 0,-2.3 0.2,-4.7 0.6,-6.9 0.4,-2.3 0.9,-4.4 1.4,-6.4 0.5,-2 1.1,-3.8 1.7,-5.4 0.6,-1.6 1.2,-2.9 1.6,-3.8 0.8,-1.8 1.5,-3 2.2,-3.5 0.7,-0.5 1.7,-0.8 3.2,-1.1 0.6,-0.1 1.1,-0.2 1.5,-0.2 l 1,0 c 0.9,0.1 1.3,0.5 1.3,1.2 0,1.2 -0.1,2.9 -0.2,5.3 -0.2,2.4 -0.6,4.8 -1.3,7.4 -0.5,2.1 -1,3.9 -1.5,5.4 -0.5,1.5 -0.9,2.7 -1.4,3.8 -0.4,1 -0.9,1.9 -1.3,2.6 -0.5,0.7 -0.8,1.3 -1.2,1.9 0.2,2.2 0.3,3.9 0.6,5.2 0.2,1.3 0.5,2.3 0.8,2.9 0.3,0.7 0.7,1.1 1.2,1.3 0.5,0.2 1,0.3 1.6,0.2 1,-0.1 2.2,-0.7 3.6,-1.9 1.4,-1.2 2.9,-2.6 4.4,-4.2 1.5,-1.7 3,-3.5 4.5,-5.5 0.9,-1.2 1.7,-2.3 2.5,-3.4 0.4,-2.8 1.3,-5.7 2.7,-8.8 1.6,-3.5 3.5,-6.8 5.8,-9.9 2.3,-3.1 4.9,-5.7 7.8,-7.8 2.9,-2.2 5.8,-3.4 8.7,-3.8 2.8,-0.3 4.8,0.1 6.1,1.4 1.2,1.2 1.8,2.9 1.7,5 -0.2,2.3 -0.9,4.5 -1.9,6.5 -1.1,2 -2.3,3.9 -3.8,5.6 -1.5,1.7 -3,3.3 -4.7,4.7 -1.7,1.4 -3.2,2.8 -4.7,3.9 -1.6,1.3 -3.2,2.5 -4.6,3.7 -1.5,1.2 -2.8,2.2 -3.8,3.2 0.1,1.8 0.4,3.3 1,4.5 0.6,1.2 1.3,2.1 2.2,2.8 0.9,0.7 1.9,1.1 3,1.3 1.1,0.2 2.3,0.2 3.5,0.1 2.5,-0.3 5.1,-1.4 7.8,-3.3 2.7,-1.9 5.4,-4.1 8,-6.6 2.6,-2.5 5,-5.2 7.3,-7.8 2.2,-2.7 4.1,-5 5.6,-6.9 0.5,-0.7 1,-1.1 1.6,-1.2 0.5,-0.2 1,-0.2 1.3,0.1 0.3,0.2 0.5,0.6 0.5,1.3 0,0.6 -0.2,1.4 -0.8,2.2 -2.2,3.5 -4.7,6.9 -7.5,10.3 -2.8,3.4 -5.7,6.4 -8.9,9.2 -3.2,2.8 -6.3,5 -9.6,6.9 -3.2,1.9 -6.4,3 -9.5,3.3 -1.6,0.2 -3.4,0 -5.2,-0.5 -1.9,-0.6 -3.6,-1.5 -5.1,-3 -1.5,-1.4 -2.8,-3.4 -3.7,-5.8 -0.3,-0.9 -0.6,-2 -0.8,-3.1 -1,1.4 -2.1,2.8 -3.2,4.1 -2.5,2.9 -4.9,5.4 -7.4,7.5 -2.5,2.1 -4.8,3.2 -7,3.5 -2,0.2 -3.5,-0.3 -4.7,-1.5 -1.1,-1.2 -2.1,-3.1 -2.9,-5.5 -1.7,2.8 -3.7,5.1 -5.9,6.8 -2.3,1.7 -4.8,2.7 -7.6,3 -2.8,0.3 -5.1,0.1 -6.8,-0.5 -1.7,-0.7 -3.1,-1.6 -4.1,-2.7 -1,-1.2 -1.7,-2.5 -2.1,-3.9 -0.1,-0.4 -0.2,-0.9 -0.3,-1.3 l -0.8,1.2 c -1.4,2 -2.8,3.9 -4.3,5.9 -1.5,2 -3,3.9 -4.6,5.9 -1.5,1.9 -3,3.7 -4.4,5.4 -1.5,1.6 -3.1,3.4 -4.8,5.2 -1.7,1.9 -3.5,4 -5.2,6.4 -0.3,1.4 -0.5,2.7 -0.7,3.8 -0.2,1.1 -0.4,2.1 -0.5,3 -0.4,2.6 -0.6,4.8 -0.7,6.6 -0.1,1.8 -0.2,3.4 -0.2,4.7 0,1.4 0,2.6 0.1,3.7 0.1,1.1 0.1,2.3 0.1,3.6 0.1,2.6 0,4.5 -0.3,5.5 -0.3,1 -1.1,1.7 -2.6,1.8 -0.7,0.1 -1.7,-0.1 -2.9,-0.7 -1.2,-0.5 -2.3,-1.3 -3.4,-2.4 -1.1,-1 -2,-2.4 -2.8,-3.9 -0.8,-1.6 -1.2,-3.5 -1.2,-5.6 0,-2.8 0.5,-5.6 1.7,-8.4 1.1,-2.8 2.6,-5.6 4.4,-8.4 0.5,-1.9 1.1,-4 1.7,-6.4 0.6,-2.4 1.3,-4.8 1.9,-7.2 0.7,-2.4 1.3,-4.9 2,-7.4 0.7,-2.5 1.3,-4.8 1.9,-7.1 -0.8,1.2 -1.7,2.4 -2.6,3.6 -1,1.2 -2,2.3 -3.1,3.3 -1.1,1 -2.3,1.9 -3.5,2.6 -1.3,0.7 -2.6,1.1 -4,1.3 -3.5,0.4 -6.1,0 -8,-1.2 -1.9,-1.2 -3.3,-2.6 -4.2,-4.4 -0.9,-1.8 -1.5,-3.7 -1.7,-5.7 -0.1,-1 -0.2,-2 -0.2,-2.8 -1.3,1.6 -2.6,3.1 -3.9,4.6 -2.6,2.9 -5.1,5.4 -7.5,7.5 -2.4,2.1 -4.5,3.3 -6,3.6 -1.2,0.2 -2.5,0.2 -3.7,-0.2 -1.2,-0.3 -2.3,-0.9 -3.3,-1.6 -1,-0.7 -1.8,-1.6 -2.5,-2.7 -0.7,-1 -1,-2.2 -1.1,-3.4 -0.2,-1.8 -0.2,-4.3 0,-7.5 l 0,-0.1 c -2.2,3.2 -4.5,6.2 -7,9.1 -2.6,3.1 -5.2,5.8 -7.7,7.9 -2.5,2.1 -4.6,3.3 -6.3,3.5 -2.4,0.3 -4.4,0 -6,-0.7 -1.6,-0.8 -2.9,-1.8 -3.8,-3.1 -0.9,-1.3 -1.6,-2.7 -1.9,-4.3 -0.4,-1.6 -0.5,-3.1 -0.3,-4.5 0.1,-1.2 0.3,-3.3 0.8,-6.4 0.4,-3.1 1,-6.7 1.7,-10.8 l 0,-0.1 c -1.2,1.1 -2.6,2.4 -4.1,3.7 -2,1.8 -4.3,3.5 -6.7,5.3 -2.4,1.7 -4.7,3.1 -6.9,4.1 -0.7,2.9 -1.7,5.6 -3,8.2 -1.2,2.6 -2.7,4.8 -4.4,6.8 -1.7,2 -3.7,3.6 -5.8,4.8 -2.2,1.2 -4.5,2 -7.1,2.3 -3,0.4 -5.4,0 -7.1,-1.1 -1.7,-1.1 -3,-2.5 -3.8,-4.3 -0.8,-1.8 -1.4,-3.8 -1.5,-6.1 -0.2,-2.3 -0.3,-4.4 -0.3,-6.4 0,-1.4 0.2,-2.9 0.5,-4.7 0.2,-0.9 0.4,-1.7 0.6,-2.6 -1.7,1.4 -3.5,2.8 -5.4,4.2 -2.4,1.4 -4.7,2.8 -6.9,3.8 z m 25.7,-19.8 c 1.1,-1.5 2.3,-2.7 3.6,-3.7 1.3,-0.9 2.6,-1.5 4,-1.6 0.9,-0.1 1.6,0.2 2.3,0.9 0.6,0.7 1.1,1.6 1.5,2.8 0.4,1.2 0.7,2.5 0.8,3.9 0.1,1.4 0.1,2.9 0,4.3 0,0.6 -0.1,1.3 -0.3,2.1 -0.2,0.8 -0.4,1.7 -0.6,2.7 -0.4,0.1 -0.7,0.2 -1.1,0.3 -0.4,0.1 -0.7,0.1 -1.1,0.2 -2.3,0.3 -4,0.1 -5.3,-0.4 -1.3,-0.6 -2.2,-1.3 -2.8,-2.3 -0.6,-1 -1,-2.1 -1.1,-3.3 -0.2,-1.3 -0.2,-2.5 -0.2,-3.7 0,-0.8 0.1,-1.5 0.3,-2.2 z m 88.6,-41 c 0.2,-0.8 0.3,-1.6 0.3,-2.6 0,-1 -0.2,-1.8 -0.5,-2.5 -0.3,-0.7 -0.7,-1.3 -1.3,-1.7 -0.5,-0.4 -1.2,-0.5 -2,-0.3 -0.8,0.2 -1.8,0.9 -2.9,1.8 -1.1,1 -2,2.1 -2.7,3.4 -0.7,1.3 -1.1,2.6 -1,4 0.1,1.3 0.9,2.5 2.4,3.5 0.5,0.4 1.2,0.4 2,0.2 0.8,-0.2 1.6,-0.6 2.4,-1.2 0.8,-0.6 1.5,-1.3 2.1,-2.1 0.5,-0.8 1,-1.6 1.2,-2.5 z m 15.6,51.5 c 0,2.1 0.3,3.7 0.8,4.8 0.5,1.1 1.2,1.9 2,2.4 0.8,0.5 1.6,0.7 2.4,0.7 0.8,0 1.5,-0.1 2,-0.1 1.6,-0.2 3.1,-1 4.5,-2.5 1.5,-1.5 2.8,-3.2 4,-5.3 1.2,-2 2.3,-4.2 3.2,-6.6 0.9,-2.3 1.6,-4.5 2,-6.5 0.2,-1.1 0.4,-2.1 0.6,-3 0.2,-0.9 0.4,-1.7 0.5,-2.3 -1.4,0.3 -2.4,0.1 -2.9,-0.5 -0.5,-0.7 -0.8,-1.9 -0.9,-3.7 0,-0.7 -0.1,-1.5 -0.2,-2.3 -0.2,-0.8 -0.4,-1.6 -0.8,-2.2 -0.4,-0.7 -0.8,-1.2 -1.4,-1.5 -0.6,-0.4 -1.3,-0.5 -2.2,-0.4 -1.9,0.2 -3.7,1.3 -5.3,3.3 -1.7,2 -3.1,4.4 -4.3,7.2 -1.3,2.8 -2.2,5.9 -2.9,9.2 -0.8,3.3 -1.1,6.4 -1.1,9.3 z M 349.1,18.4 c -0.9,0.1 -1.9,0.7 -3.1,1.7 -1.2,1 -2.4,2.4 -3.6,4.2 -1.2,1.8 -2.3,3.9 -3.3,6.5 -1,2.5 -1.8,5.3 -2.3,8.5 0.9,-0.8 1.8,-1.5 2.9,-2.4 1,-0.8 2.1,-1.7 3.1,-2.6 3.1,-2.8 5.4,-5.2 6.6,-7.2 1.2,-2 2,-3.6 2.1,-5 0.1,-1.4 0,-2.4 -0.4,-3 -0.6,-0.5 -1.2,-0.8 -2,-0.7 z"
       id="path3419"
       inkscape:connector-curvature="0" />
  </g>
</svg>
